<svg width="116" height="99" viewBox="0 0 116 99" fill="none" xmlns="http://www.w3.org/2000/svg">
<g clip-path="url(#clip0_1_4225)">
<path d="M98.3838 47.3418H17.1445V93.9625H98.3838V47.3418Z" fill="#F4F4F4"/>
<path d="M41.9833 27.7471V43.2724H12.3789L24.7795 27.7471H41.9833Z" fill="#F26E62"/>
<path d="M57.0157 29.3691H51.4219V35.3856H57.0157V29.3691Z" fill="#F26E62"/>
<path d="M64.3692 29.3691H58.7754V35.3856H64.3692V29.3691Z" fill="#F26E62"/>
<path d="M103.14 43.2724H73.5737L73.5557 27.7471H90.7396L103.14 43.2724Z" fill="#F26E62"/>
<path d="M14.624 98.379H100.907C102.143 98.379 103.143 97.5259 103.143 96.4745V95.8704C103.143 94.8189 102.141 93.9658 100.907 93.9658H14.6222C13.3875 93.9658 12.3857 94.8189 12.3857 95.8704V96.476C12.3857 97.5259 13.3875 98.379 14.624 98.379Z" fill="#FEDC7D"/>
<path d="M103.14 43.2725H12.3789V47.3306H103.14V43.2725Z" fill="#E15F5A"/>
<path d="M39.971 68.6377H27.9404V77.3058H39.971V68.6377Z" fill="#A0C3D8"/>
<path d="M39.971 78.0938H27.9404V86.771H39.971V78.0938Z" fill="#A0C3D8"/>
<path d="M53.4348 68.6377H41.3916V77.3058H53.4348V68.6377Z" fill="#A0C3D8"/>
<path d="M53.4348 78.0938H41.3916V86.771H53.4348V78.0938Z" fill="#A0C3D8"/>
<path d="M26.6621 67.4814V87.9257H54.698V67.4814H26.6621ZM39.9797 86.7652H27.9256V78.0879H39.9797V86.7652ZM39.9797 77.3039H27.9256V68.642H39.9797V77.3039ZM53.4326 86.7652H41.3984V78.0879H53.4326V86.7652ZM53.4326 77.3039H41.3984V68.642H53.4326V77.3039Z" fill="#DADDE1"/>
<path d="M36.9351 51.0938H26.3232V59.7603H36.9351V51.0938Z" fill="#92B6CF"/>
<path d="M54.3589 51.0938H43.7471V59.7603H54.3589V51.0938Z" fill="#92B6CF"/>
<path d="M71.7827 51.0938H61.1709V59.7603H71.7827V51.0938Z" fill="#92B6CF"/>
<path d="M89.2075 51.0938H78.5957V59.7603H89.2075V51.0938Z" fill="#92B6CF"/>
<path d="M87.5353 93.9637H67.4922V76.8781C67.4922 72.1651 71.9795 68.3438 77.5138 68.3438C83.048 68.3438 87.5353 72.1651 87.5353 76.8781V93.9637Z" fill="#788D9A"/>
<path d="M73.5555 27.7471V23.566L70.902 20.6608L69.3497 18.9545L64.3137 13.4207L59.2957 7.9177L57.7614 6.24219L56.2451 7.9177L49.6929 15.127L44.6388 20.6915L41.9854 23.6275V43.274H73.5735L73.5555 27.7471ZM65.6656 36.8318H49.8716V20.3518H65.6656V36.8318Z" fill="#EDEDED"/>
<path d="M57.7589 6.24121L56.2427 7.91672L49.6904 15.126L56.2247 7.91672L57.7589 6.24121Z" fill="#EDEDED"/>
<path d="M57.0157 21.623H51.4219V27.6395H57.0157V21.623Z" fill="#EDEDED"/>
<path d="M57.0157 29.3691H51.4219V35.3856H57.0157V29.3691Z" fill="#EDEDED"/>
<path d="M64.3692 21.623H58.7754V27.6395H64.3692V21.623Z" fill="#EDEDED"/>
<path d="M64.3692 29.3691H58.7754V35.3856H64.3692V29.3691Z" fill="#EDEDED"/>
<path d="M72.6347 43.2725L41.9834 43.2877V43.2725H72.6347Z" fill="#EDEDED"/>
<path d="M76.6598 21.9523V21.9676C76.6598 24.0121 75.0172 25.1649 73.8801 23.9045L73.5732 23.5816L73.5552 23.5663L70.9018 20.661L69.3494 18.9548L64.3134 13.421L59.2954 7.91794L57.7611 6.24243L56.2448 7.91794L49.6926 15.1272L44.6385 20.6918L41.9851 23.6278L41.6782 23.9506C40.541 25.211 38.8984 24.0428 38.8984 21.9984C38.8984 21.2298 39.1331 20.5073 39.5663 20.0462L44.6385 14.4816L50.577 7.93331L57.7593 0L64.3116 7.17856L64.9614 7.90103L65.6112 8.6235L69.3476 12.7277L70.8999 14.4186L71.6942 15.2794L75.9902 19.9985C76.4252 20.4612 76.6598 21.1837 76.6598 21.9523Z" fill="#F26E62"/>
<path d="M49.8711 20.3525V36.8325H65.6652V20.3525H49.8711ZM57.019 35.3876H51.4234V29.3772H57.019V35.3876ZM57.019 27.6402H51.4234V21.6299H57.019V27.6402ZM64.3655 35.3876H58.7699V29.3772H64.3655V35.3876ZM64.3655 27.6402H58.7699V21.6299H64.3655V27.6402Z" fill="#DADDE1"/>
<path d="M57.0157 21.624H51.4219V27.6405H57.0157V21.624Z" fill="#DADDE1"/>
<path d="M57.0157 29.3691H51.4219V35.3856H57.0157V29.3691Z" fill="#DADDE1"/>
<path d="M64.3692 21.624H58.7754V27.6405H64.3692V21.624Z" fill="#DADDE1"/>
<path d="M64.3692 29.3691H58.7754V35.3856H64.3692V29.3691Z" fill="#DADDE1"/>
<path d="M57.0157 21.624H51.4219V27.6405H57.0157V21.624Z" fill="#92B6CF"/>
<path d="M64.3692 21.624H58.7754V27.6405H64.3692V21.624Z" fill="#92B6CF"/>
<path d="M57.0157 29.3691H51.4219V35.3856H57.0157V29.3691Z" fill="#92B6CF"/>
<path d="M64.3692 29.3691H58.7754V35.3856H64.3692V29.3691Z" fill="#92B6CF"/>
</g>
<defs>
<clipPath id="clip0_1_4225">
<rect width="115.522" height="98.3786" fill="white"/>
</clipPath>
</defs>
</svg>
